# xmcd
#
# Track frame offsets:
#	150
#	13398
#	25231
#	44964
#	59517
#	76760
#	96244
#	108303
#	120739
#	131391
#	141973
#	159449
#	177988
#	188416
#	201703
#	211357
#
# Disc length: 2980 seconds
#
# Revision: 0
# Processed by: cddbd v1.5.2PL0 Copyright (c) Steve Scherf et al.
# Submitted via: FairStars CD Ripper 1.90
#
DISCID=ea0ba210
DTITLE=Various Artist - Nashville Christmas
DYEAR=2014
DGENRE=Country
TTITLE0=Hunter Hayes - Go Tell It on The Mountain
TTITLE1=LeAnne Rimes - Rockin' Around The Christmas Tree
TTITLE2=Lee Brice - O Holy Night
TTITLE3=Faith Hill - Away In A Manger
TTITLE4=Brett Eldredge - Mary, Did You Know?
TTITLE5=Wynonna - The Christmas Song
TTITLE6=Dwight Yoakam - Santa Claus is Back in Town
TTITLE7=Jana Kramer - Have Yourself A Merry Little Christmas
TTITLE8=Randy Travis - Let it Snow, Let it Snow, Let it Snow
TTITLE9=Jeff Foxworthy - Redneck 12 Days of Christmas
TTITLE10=Charlie Worsham - Santa Claus is Coming to Town
TTITLE11=Frankie Ballard - Run, Run Rudolph
TTITLE12=Bill Engvall - Here's Your Sign Christmas
TTITLE13=Big and Rich - Blue Christmas
TTITLE14=Rodney Atkins - Up on The Rooftop
TTITLE15=Blake Shelton - Silent Night (feat. Sheryl Crow)
EXTD=
EXTT0=
EXTT1=
EXTT2=
EXTT3=
EXTT4=
EXTT5=
EXTT6=
EXTT7=
EXTT8=
EXTT9=
EXTT10=
EXTT11=
EXTT12=
EXTT13=
EXTT14=
EXTT15=
PLAYORDER=
